<?xml version="1.0" encoding="utf-8"?>
<svg xmlns="http://www.w3.org/2000/svg" xmlns:xlink="http://www.w3.org/1999/xlink" style="margin: auto; background: none; display: block; shape-rendering: auto;" width="271px" height="271px" viewBox="0 0 100 100" preserveAspectRatio="xMidYMid">
<g transform="translate(50 50)">
<g>
<animateTransform attributeName="transform" type="rotate" values="0;45" keyTimes="0;1" dur="0.4587155963302753s" repeatCount="indefinite"></animateTransform><path d="M5.65685424949238 -7 L34.65685424949238 -7 L34.65685424949238 7 L5.65685424949238 7 A9 9 0 0 1 8.949747468305832 -0.9497474683058336 L8.949747468305832 -0.9497474683058336 L29.45584412271571 19.556349186104047 L19.556349186104047 29.45584412271571 L-0.949747468305834 8.949747468305832 A9 9 0 0 1 7.000000000000001 5.656854249492379 L7.000000000000001 5.656854249492379 L7.000000000000001 34.656854249492376 L-7.000000000000001 34.656854249492376 L-7.000000000000001 5.656854249492379 A9 9 0 0 1 0.9497474683058351 8.949747468305832 L0.9497474683058351 8.949747468305832 L-19.556349186104043 29.455844122715718 L-29.45584412271571 19.55634918610405 L-8.949747468305832 -0.9497474683058335 A9 9 0 0 1 -5.656854249492378 7.000000000000001 L-5.656854249492378 7.000000000000001 L-34.656854249492376 7.0000000000000036 L-34.65685424949238 -6.999999999999997 L-5.65685424949238 -7 A9 9 0 0 1 -8.949747468305832 0.9497474683058357 L-8.949747468305832 0.9497474683058357 L-29.45584412271571 -19.556349186104036 L-19.556349186104047 -29.455844122715703 L0.9497474683058329 -8.949747468305832 A9 9 0 0 1 -7.000000000000002 -5.656854249492378 L-7.000000000000002 -5.656854249492378 L-7.000000000000006 -34.656854249492376 L6.999999999999996 -34.65685424949238 L7 -5.65685424949238 A9 9 0 0 1 -0.9497474683058362 -8.949747468305832 L-0.9497474683058362 -8.949747468305832 L19.55634918610404 -29.455844122715718 L29.45584412271571 -19.55634918610405 L8.949747468305832 0.9497474683058325 A9 9 0 0 1 5.656854249492377 -7.000000000000002 M0 -33A33 33 0 1 0 0 33 A33 33 0 1 0 0 -33" fill="#f5076a"></path></g></g>
<!-- [ldio] generated by https://loading.io/ --></svg>